<?xml version="1.0" encoding="utf-8"?><svg version="1.1" id="Layer_1" xmlns="http://www.w3.org/2000/svg" xmlns:xlink="http://www.w3.org/1999/xlink" x="0px" y="0px" viewBox="0 0 122.88 111.28" style="enable-background:new 0 0 122.88 111.28" xml:space="preserve"><style type="text/css">.st0{fill-rule:evenodd;clip-rule:evenodd;}</style><g><path class="st0" d="M30.49,14.38l-3.77,3.77L9.54,0.99c-1.32-1.32-3.47-1.32-4.79,0L0.99,4.76c-1.32,1.32-1.31,3.47,0,4.79 l17.17,17.17l-3.77,3.77c-0.4,0.4-0.4,1.05,0,1.45l1.96,1.96c0.4,0.4,1.05,0.4,1.45,0l2.51-2.51l5.35,5.35l2.53-2.53l-5.35-5.35 l6.03-6.03l4.94,4.94l2.53-2.53l-4.94-4.94l2.51-2.51c0.4-0.4,0.4-1.05,0-1.45l-1.96-1.96C31.54,13.98,30.88,13.98,30.49,14.38 L30.49,14.38z M25.45,44.7c10.87-30.42,60.2-29.77,71.55,1.6c0.54,1.49,0.97,3.03,1.32,4.61c15.48-10.78,13.33,4.95,24.56,7.05 c-3.53,4.17-7.98,3.63-12.44,0.74c3.96,6.72-2.38,10.73,2.76,18.34c-12.33-0.07-7.19-11.92-12.01-16.44 c-0.62-0.58-1.25-0.92-1.9-1.06c0.48,29.11-24.54,64.91-54.02,46.89C26.18,94.76,18.17,65.09,25.45,44.7L25.45,44.7z M75.1,61.35 c2.1,0,3.8,1.7,3.8,3.8c0,2.1-1.7,3.8-3.8,3.8c-2,0-3.64-1.54-3.79-3.5c0.37,0.23,0.8,0.36,1.26,0.36c1.33,0,2.41-1.08,2.41-2.41 c0-0.77-0.36-1.45-0.92-1.89C74.4,61.4,74.75,61.35,75.1,61.35L75.1,61.35z M46.98,61.35c2.1,0,3.8,1.7,3.8,3.8 c0,2.1-1.7,3.8-3.8,3.8c-2,0-3.64-1.54-3.79-3.5c0.37,0.23,0.8,0.36,1.27,0.36c1.33,0,2.41-1.08,2.41-2.41 c0-0.77-0.36-1.45-0.92-1.89C46.27,61.4,46.62,61.35,46.98,61.35L46.98,61.35z M32.74,55.25c19.33-3.58,37.81-4.35,56.6,0 c0.44,0.1,0.82,0.37,0.82,0.82V67.6c0,0.45-0.49,0.51-0.82,0.82c-1.15,1.08-2.31,2.09-3.46,3.04 c-16.64,13.63-33.18,12.97-50.56-0.88c-0.86-0.68-1.72-1.4-2.59-2.15c-0.34-0.3-0.82-0.37-0.82-0.82V56.07 C31.92,55.62,32.3,55.33,32.74,55.25L32.74,55.25z"/></g></svg>