<svg id="Layer_1" data-name="Layer 1" xmlns="http://www.w3.org/2000/svg" viewBox="0 0 99.68 122.88"><defs><style>.cls-1{fill-rule:evenodd;}</style></defs><title>piracy</title><path class="cls-1" d="M29.86,16.63,25.8,20.1,10,1.62a3.4,3.4,0,0,0-4.78-.38L1.18,4.71A3.4,3.4,0,0,0,.81,9.49L16.59,28l-4.06,3.47a1,1,0,0,0-.12,1.45L14.22,35a1,1,0,0,0,1.44.11l2.7-2.31,4.92,5.76L26,36.24l-4.92-5.76,6.49-5.54,4.54,5.31,2.72-2.32L30.3,22.61,33,20.3a1,1,0,0,0,.11-1.44l-1.8-2.11a1,1,0,0,0-1.46-.12Zm40.42.6,4.21,3.27L89.41,1.31a3.38,3.38,0,0,1,4.75-.6L98.37,4A3.4,3.4,0,0,1,99,8.74l-14.9,19.2,4.21,3.27a1,1,0,0,1,.19,1.44l-1.71,2.2a1,1,0,0,1-1.44.18l-2.8-2.18-4.65,6L75,36.64l4.65-6L73,25.42l-4.29,5.52-2.83-2.19,4.29-5.53L67.31,21a1,1,0,0,1-.18-1.44l1.7-2.19a1,1,0,0,1,1.45-.18ZM25.77,74.68C16.49,70.29,6,66.47,5,60l30.4-24.66c9.26-7,18.73-7.9,28.49,0L94.78,58.73c-3.2,6.55-9.39,11.52-16.61,16-17.47-20.45-34.93-22.56-52.4,0ZM59.48,106l-1.43,3.65a23.3,23.3,0,0,1-7.3.93,32.39,32.39,0,0,1-4.11-.24,19.66,19.66,0,0,1-3.18-.68L42,106l-9.89-4.78-.91-6q-.21-1.71-3-6.72c-1.3-2.16-2-5.49-2.16-10a4.25,4.25,0,0,0,3.14-1.61C37,66.77,44.56,62.17,51.84,62.39s15.08,5.35,23,14.66h0a4.47,4.47,0,0,0,.63.6,32,32,0,0,1-4.52,15,11.59,11.59,0,0,0-.7,2.58l-.91,6L59.48,106Zm2.9,8.7-4.33,3.79a7.69,7.69,0,0,1-3,3.31,8.63,8.63,0,0,1-4.44,1.1,7.82,7.82,0,0,1-7.44-4.41l-4.31-3.79-1.78-7,2.56-.66c.29.73.48,1.27.63,1.66,1.09,2.51,2.29,4.17,3.57,5s3.45,1.22,6.5,1.22c3.39,0,5.75-.39,7-1.14s2.52-2.43,3.58-5c.14-.39.36-.92.65-1.66l2.54.66-1.76,7ZM50.83,94a29.59,29.59,0,0,1-2.63,3.77c-1.14,1.29-1.7,2.29-1.7,3a2.18,2.18,0,0,0,.68,1.74,3,3,0,0,0,2,.55,3.41,3.41,0,0,0,1.69-.55,3.38,3.38,0,0,0,1.69.55c1.77,0,2.63-.77,2.63-2.36,0-.66-.55-1.64-1.68-2.93A23.13,23.13,0,0,1,50.83,94ZM34.54,88.23c0,4.55,2,6.84,5.87,6.84s6-2.45,6-7.35q0-6.06-5.73-6.06a5.94,5.94,0,0,0-4.57,1.63,7.11,7.11,0,0,0-1.52,4.94Zm21,0c0,4.55,2,6.84,6,6.84s5.94-2.45,5.94-7.35A6.3,6.3,0,0,0,66,83.17a5.77,5.77,0,0,0-4.35-1.51c-4.05,0-6.09,2.19-6.09,6.57ZM50,44.23q1.62-.9,5.68-2.64c.13-.07.48-.22,1-.45a24.5,24.5,0,0,1,2.4-2.22,3,3,0,0,1,1.37-.74.94.94,0,0,1,.78.33,1.67,1.67,0,0,1,.24,1,11.36,11.36,0,0,1-.17,1.63,4.1,4.1,0,0,1,1.07,2,1.16,1.16,0,0,1-.3.84,1.26,1.26,0,0,1-.9.29,2.31,2.31,0,0,1-.9-.32,17.82,17.82,0,0,1-1.56-.92,27.82,27.82,0,0,0-6.58,2.59l.8.48q1.48.85,3.69,2.28c.17.13.59.37,1.24.76q4.53.53,4.53,2.3c0,.77-.81,1.3-2.44,1.56q-1.14,1.41-1.89,1.41c-.6,0-1.18-.79-1.75-2.36a6.07,6.07,0,0,0-.27-.73A38.56,38.56,0,0,0,49.78,47a35.14,35.14,0,0,0-6.33,4.62c-.26,1.9-.83,2.84-1.7,2.84-.54,0-1.17-.53-1.88-1.6-1.7,0-2.55-.47-2.55-1.4a1.59,1.59,0,0,1,1-1.51,17.42,17.42,0,0,1,4-.91,44.15,44.15,0,0,1,5.37-3.36,26.76,26.76,0,0,0-6.82-2.59,6.36,6.36,0,0,1-1.15.83,2.13,2.13,0,0,1-1,.27,1.51,1.51,0,0,1-1-.27,1,1,0,0,1-.34-.81,4.81,4.81,0,0,1,1.09-1.93,7,7,0,0,1-.25-1.56,1.76,1.76,0,0,1,.3-1.12,1,1,0,0,1,.87-.37,2.66,2.66,0,0,1,1.49.76,16.85,16.85,0,0,1,2.21,2.28A59.16,59.16,0,0,1,50,44.23Z"/></svg>